<?xml version="1.0" encoding="UTF-8"?><svg xmlns="http://www.w3.org/2000/svg" viewBox="0 0 177.19 221.85"><defs><style>.d{fill:#f98e03;}</style></defs><g id="a"/><g id="b"><g id="c"><g><path class="d" d="M15.72,166.19c-1.26-1.29-2.51-2.46-3.63-3.73-6.28-7.12-10.05-15.46-11.96-24.7-.33-1.59-.09-3.06,1.25-4.17,1.39-1.16,2.89-1.04,4.47-.46,8.13,2.97,16.27,5.93,24.4,8.89,19.15,6.97,38.3,13.95,57.45,20.89,.54,.2,1.28,.18,1.83-.01,15.58-5.64,31.14-11.32,46.71-16.99,11.71-4.27,23.43-8.54,35.14-12.81,1.58-.58,3.11-.65,4.46,.52,1.46,1.26,1.51,2.85,1.14,4.61-1.88,8.83-5.49,16.82-11.39,23.7-6.14,7.16-13.76,12.14-22.66,15.21-2.56,.88-5.1,1.85-8.08,2.93,2.27,.84,4.15,1.55,6.03,2.23,8.18,2.98,16.39,5.88,24.54,8.95,8.79,3.31,12.7,12.99,8.82,21.49-3.29,7.21-11.66,10.89-19.32,8.25-8.23-2.84-16.38-5.89-24.56-8.88-2.48-.91-4.39-2.63-6.16-4.54-1.48-1.6-2.97-3.19-4.48-4.76-1.88-1.96-4.31-2.52-6.78-1.43-3.84,1.69-7.64,1.68-11.54,.19-3.88-1.49-7.8-2.87-11.74-4.21-.63-.22-1.47-.23-2.1-.01-4.12,1.42-8.2,2.92-12.29,4.41-3.55,1.3-7.06,1.27-10.57-.2-3.12-1.3-5.27-.81-7.61,1.66-1.87,1.97-3.64,4.07-5.68,5.86-1.46,1.28-3.17,2.44-4.97,3.13-7.81,2.98-15.69,5.76-23.55,8.62-6.79,2.46-14.41,.19-18.42-5.48-4.22-5.98-3.94-13.89,.66-19.45,2.41-2.9,5.66-4.36,9.11-5.59,8.95-3.19,17.86-6.47,26.78-9.72,.31-.11,.6-.3,1.14-.57-7.72-2.92-15.55-5.08-22.08-10.33m5.8-5.01c3.03,1.47,5.83,3.11,8.82,4.21,15.53,5.76,31.12,11.37,46.68,17.04,2.91,1.06,5.82,2.12,8.83,3.22,1.84-5.06,3.63-9.96,5.45-14.97-28.69-10.44-57.19-20.82-86.08-31.33,.36,.97,.56,1.56,.79,2.13,2.27,5.58,5.53,10.49,9.85,14.69m82.79,17.2c-1.76,4.83-3.43,9.48-5.14,14.11-.3,.82,.13,1.04,.76,1.27,1.91,.68,3.83,1.34,5.71,2.09,1.91,.75,3.72,.64,5.6-.18,2.8-1.21,5.72-1.43,8.71-.71,3.34,.8,5.88,2.79,8.01,5.33,3.1,3.71,6.59,6.8,11.49,7.89,.77,.17,1.5,.51,2.24,.78,5.67,2.06,11.32,4.16,17.02,6.15,3.29,1.15,6.2,.26,8.47-2.3,2.25-2.53,2.63-5.47,1.26-8.58-1.1-2.5-3.23-3.73-5.69-4.62-14.97-5.42-29.93-10.87-44.89-16.31-4.45-1.62-8.91-3.23-13.56-4.92Zm-2.47-9.61l.03,.37c7.34,2.68,14.67,5.37,22.03,8.01,.53,.19,1.27,.07,1.84-.14,5.45-1.95,10.86-4,16.33-5.91,9.72-3.4,17.35-9.4,22.75-18.15,1.58-2.57,2.77-5.38,4.14-8.08l-.44-.36c-22.22,8.09-44.45,16.17-66.67,24.26Zm-23.71,25.51c-.36-.2-.55-.33-.77-.41-7.16-2.61-14.32-5.22-21.49-7.78-.53-.19-1.27-.11-1.83,.09-12.7,4.6-25.39,9.21-38.07,13.88-4.42,1.62-6.46,6.07-4.88,10.33,1.52,4.12,6.02,6.17,10.36,4.61,7.82-2.81,15.63-5.66,23.42-8.57,1.03-.38,2-1.09,2.8-1.86,1.95-1.9,3.72-3.98,5.67-5.88,4.09-4,9.06-5.39,14.32-3.25,3.89,1.58,6.96,.32,10.47-1.16Z"/><path class="d" d="M136.12,102.05c0,1.59,0,3.02,0,4.45,0,10.45,0,20.9,0,31.36,0,3.34-1.46,4.75-4.81,4.75-28.43,0-56.87,0-85.3,0-3.46,0-4.88-1.37-4.88-4.82,0-11.24,0-22.49,0-33.73,0-.64,0-1.28,0-1.74-3.08-1.12-6.13-1.92-8.89-3.29-14.85-7.39-22.88-19.49-22.7-36.05,.18-16.67,8.5-28.68,23.6-35.82,5.61-2.65,11.6-3.59,17.78-3.23,1.1,.06,1.64-.22,2.13-1.24C62.59,2.7,85.81-5.58,105.73,3.95c8.18,3.91,14.24,10.1,18.22,18.25,.63,1.28,1.24,1.73,2.74,1.7,15.96-.29,28.34,6.39,36.06,20.29,7.82,14.07,6.9,28.31-2.07,41.71-5.5,8.22-13.42,13.3-23,15.75-.48,.12-.95,.24-1.57,.4Zm-7.83,16.87c0-.76,0-1.34,0-1.92,0-5.89,0-11.79,0-17.68,0-2.85,1.19-4.22,3.93-4.63,18.74-2.79,30.46-19.06,27.14-37.65-2.87-16.06-19.3-27.69-35.39-25.03-3.28,.54-4.57-.22-5.75-3.41-4.58-12.41-16.37-20.74-29.4-20.79-13.44-.05-25.28,8.3-29.93,21.09-.99,2.73-2.34,3.54-5.22,3.17-1.42-.18-2.85-.45-4.27-.44-11.32,.06-20.32,4.72-26.73,14.02-13.17,19.11-1.24,45.86,21.76,48.97,3.48,.47,4.51,1.64,4.52,5.15,0,5.75,0,11.49,0,17.24q0,1.9,1.96,1.9c.84,0,1.69-.03,2.52,.05,2.1,.21,3.47,1.94,3.37,4.14-.1,1.99-1.63,3.5-3.66,3.56-1.09,.03-2.19-.06-3.26,.04-.33,.03-.88,.51-.89,.8-.07,2.36-.04,4.72-.04,7.12h79.34c0-2.13-.09-4.11,.03-6.08,.08-1.45-.28-1.93-1.85-1.92-18.47,.06-36.95,.04-55.42,.04-.84,0-1.69,.03-2.53-.02-1.65-.09-2.89-1.06-3.41-2.63-.94-2.85,1.04-5.12,4.47-5.12,18.82,0,37.64,0,56.46,0,.68,0,1.36,0,2.25,0Z"/></g></g></g></svg>