<svg xmlns="http://www.w3.org/2000/svg" viewBox="0 0 282.92 282.92"><defs><style>.d{fill:#f98e03;}.e{fill:#fff;}.f{fill:#9b9b9b;}.g{fill:#2b2b2b;}</style></defs><g id="a"></g><g id="b"><g id="c"><g><circle class="d" cx="141.46" cy="141.46" r="141.46"></circle><g><g><g><path d="M157.7,193.11c7.01,4.11,15.74,3.7,23.44,6.28,9.33,3.12,16.76,10.45,26.01,13.79,3.47,1.25,7.35,2.05,9.81,4.79,.29,.32,.56,.69,.58,1.12,.05,1.08-1.37,1.53-2.45,1.58-11.01,.53-22.17-2.87-31.01-9.47-2.19-1.64-4.28-3.48-6.8-4.57-7.3-3.15-16.34,.8-23.45-2.76"></path><path class="g" d="M154.17,199.16c9.75,5.22,21.21,4.28,30.86,9.68,4.54,2.54,8.77,5.62,13.38,8.05,2.43,1.28,4.96,2.37,7.55,3.28,1.33,.47,4.83,1.07,5.55,2.47l-.71-5.39-.37,.88,3.22-4.18c-.83,.44-5.4-.4-6.57-.57-2.44-.35-4.88-.99-7.22-1.75-5-1.62-9.36-4.31-13.54-7.45s-8.3-5.16-13.58-5.68c-4.8-.48-10.84,1.27-15.35-.65-3.5-1.49-7.46-1.02-9.58,2.51-1.75,2.93-.96,8.1,2.51,9.58,6.5,2.77,12.35,2.26,19.24,2.39s10.93,5.42,16.57,8.51,12.26,5.33,18.87,6.28c6.03,.86,15.37,2.27,18.59-4.43,3.16-6.59-2.89-11.73-8.44-14.05-5.89-2.46-11.27-4.59-16.73-8.03s-11.29-6.93-17.75-8.64c-6.43-1.7-13.47-1.7-19.43-4.89-7.94-4.25-15.02,7.83-7.07,12.09h0Z"></path></g><g><path d="M107.26,201.01c-11.18,2.44-22.17,5.76-32.83,9.93-1.12,.44-2.29,.92-3.07,1.84-.63,.74-.94,1.7-1.2,2.63-.61,2.18-1.03,4.41-1.25,6.66,3.92,.44,7.81-.8,11.56-2.03,5.25-1.72,10.58-3.47,15.14-6.58,2.13-1.45,4.07-3.19,6.28-4.52,7.62-4.58,17.2-3.72,26.03-2.71"></path><path class="g" d="M105.4,194.26c-9.94,2.21-19.72,5.03-29.26,8.58-4,1.48-8.28,2.74-10.82,6.42s-2.89,8.57-3.41,12.83c-.47,3.9,3.6,6.81,7,7,9.75,.53,22.21-4.15,30.24-9.57,4.05-2.73,7.27-5.76,12.25-6.68,5.4-.99,11.14-.2,16.54,.4,3.79,.42,6.96-3.52,7-7,.04-4.13-3.26-6.58-7-7-10.49-1.17-21.7-1.65-30.87,4.51-8.12,5.46-17.85,11.9-28.16,11.33l7,7c.15-1.21,.36-3.75,1-4.8-.88,1.46,1.05-.23,2.05-.61,3.27-1.23,6.58-2.38,9.9-3.46,6.66-2.15,13.42-3.93,20.25-5.45,8.79-1.96,5.07-15.46-3.72-13.5h0Z"></path></g></g><g><g><path d="M115.67,178.55c-11.06-4.03-24.08-2.52-33.93-8.97-4.89-3.2-8.87-8.29-14.61-9.38,3.53,7.1,9.87,12.5,16.85,16.26s14.64,6.06,22.24,8.33l32.57,9.73c1,.3,2.21,.85,2.22,1.9,2.5-3.24,1.62-8.54-1.81-10.79-4.7-3.09-11.89-.42-16.04-4.22"></path><path class="f" d="M117.53,171.8c-8.7-2.95-18.07-2.78-26.78-5.65-8.23-2.71-13.19-10.55-21.76-12.71-6.05-1.52-10.77,4.89-7.91,10.28,6.65,12.5,18.99,19.6,31.92,24.2,7.19,2.56,14.58,4.57,21.89,6.75l11.49,3.43c3.06,.91,8.2,1.61,10.73,3.45l-3.22-4.18,.36,.89c2.22,5.48,9.35,7.12,12.79,1.67,3.79-6,2.88-14.07-2.42-18.9-2.64-2.4-5.92-3.43-9.38-3.88-2.94-.38-6.1,.05-8.56-1.81-3.03-2.31-7.8-.45-9.58,2.51-2.14,3.57-.48,7.3,2.51,9.58,3.32,2.53,7.31,3,11.35,3.33,1.6,.13,5.53-.33,3.99,2.11l12.79,1.67c-2.83-6.99-10.12-7.68-16.69-9.65-7.96-2.38-15.91-4.74-23.87-7.13-12.99-3.9-27.23-8.34-34.02-21.12l-7.91,10.28c3.92,.99,6.74,3.97,9.85,6.4,3.62,2.82,7.53,4.89,11.91,6.31,8.72,2.82,18.08,2.69,26.78,5.65,8.55,2.9,12.22-10.61,3.72-13.5h0Z"></path></g><g><path d="M160.38,182.49c11.18,1.2,22.81,.51,33.12-3.98,9.06-3.95,16.71-10.67,22.94-18.35-15.21,7.19-31.15,12.85-47.49,16.85"></path><path class="f" d="M160.38,189.49c11.81,1.16,23.93,.37,34.98-4.23,10.33-4.3,18.94-11.59,26.03-20.15,5.11-6.18-1.13-14.44-8.48-10.99-14.72,6.89-30.05,12.22-45.82,16.14-8.74,2.17-5.04,15.68,3.72,13.5,16.95-4.22,33.35-10.15,49.16-17.56l-8.48-10.99c-5.89,7.13-12.82,13.65-21.49,17.23-9.37,3.87-19.69,4.03-29.62,3.05-8.96-.88-8.9,13.13,0,14h0Z"></path></g></g><g><g><g><path d="M96.71,52.01c-5.14,.63-9.69,3.96-12.65,8.2s-4.5,9.34-5.37,14.44c-.85,4.99-1.02,10.44,1.61,14.76,1.67,2.74,4.31,4.75,6.99,6.51,4.31,2.84,8.9,5.24,13.68,7.17,1.62,.65,3.31,1.28,4.58,2.49,2.16,2.06,2.6,5.28,2.91,8.25,.98,9.24,1.93,18.84-1.09,27.63,22.99-.4,45.99-.5,68.98-.3-2.61-9.91-3.76-20.21-3.4-30.45,.04-1.24,.12-2.52,.63-3.66,.7-1.53,2.1-2.6,3.45-3.61,2.31-1.72,4.73-3.49,7.56-4.05,1.83-.37,3.77-.22,5.52-.86,1.48-.54,2.7-1.6,3.88-2.64,5.37-4.72,11.01-9.85,12.85-16.76,.87-3.26,.81-6.69,.74-10.06-.05-2.25-.13-4.6-1.25-6.56-1.17-2.05-3.3-3.33-5.33-4.52-6.67-3.91-13.76-7.95-21.49-7.98-2.91-.01-6.02,.52-8.59-.86-1.49-.8-2.59-2.14-3.69-3.42-5.36-6.24-11.79-11.9-19.6-14.49-7.81-2.59-17.18-1.58-23.11,4.12-2.98,2.87-4.91,6.68-7.81,9.64-3.44,3.51-8.03,5.62-11.94,8.58-3.92,2.97-7.15,6.83-9.4,11.2-1.67,3.26-2.81,6.95-2.31,10.58,.48,3.49,2.41,6.61,4.48,9.45,3.48,4.78,7.51,9.16,11.98,13.04,2.49,2.16,5.15,4.2,6.98,6.93,4.71,7.01,2.78,16.35,4.02,24.71,.1,.65,.24,1.35,.73,1.79,.57,.51,1.41,.51,2.17,.49,10.15-.37,20.27-1.49,30.25-3.34,2.59-.48,5.45-1.19,6.85-3.42,1.89-2.99,.13-6.86,.04-10.39-.11-3.84,1.82-7.43,3.89-10.67,7.14-11.16,16.7-20.76,27.84-27.93,.74-.47,1.53-1.01,1.78-1.85,.42-1.44-.98-2.73-2.26-3.51-12.28-7.53-28.7-8.34-38.45-18.95"></path><path class="e" d="M94.19,42.85c-11.36,2-19.06,11.35-22.75,21.74-3.44,9.67-4.62,22.13,1.58,30.93,3.15,4.47,7.76,7.67,12.4,10.44,2.22,1.32,4.5,2.53,6.83,3.62,1.82,.86,5.05,1.35,6.36,2.76,.57,.61-1.01-1.96,.11,.29,.31,.63,.39,2.53,.43,2.94,.28,2.62,.52,5.24,.65,7.87,.28,5.36,.03,10.35-1.58,15.49-1.84,5.85,3.15,12.13,9.16,12.03,22.99-.39,45.99-.49,68.98-.3,6.28,.05,10.66-6.1,9.16-12.03-1.13-4.45-2.1-8.96-2.57-13.53-.4-3.88-1.74-10.72-.53-14.37-.64,1.95-.45,.77,1.19-.35,1.19-.81,2.15-1.44,3.53-1.82,1.76-.49,3.72-.3,5.52-.86,2.59-.81,4.79-2.36,6.87-4.06,6.72-5.49,13.21-12.13,16.04-20.52,2.62-7.77,2.88-19.57-1.83-26.53-4.76-7.04-15.82-11.83-23.64-14.35-4.13-1.33-8.47-1.74-12.79-1.66-1.26,.02-3.07-.63-1.65,.34-1.67-1.15-3.07-3.49-4.47-4.95-12.12-12.63-30.73-20.65-47.39-11.71-7.41,3.97-10.28,12.02-16.98,16.61-7.63,5.23-14.69,10.05-19.25,18.43-4.64,8.53-5.48,17.85-.71,26.52,4.34,7.88,11.1,14.54,17.83,20.39,2.87,2.5,4.81,4.43,5.43,8.28s.28,7.93,.58,11.85c.35,4.65,.86,9.36,4.81,12.42,4.44,3.44,10.31,2.49,15.53,2.11,9.05-.66,19.07-1.2,27.79-3.86,4.6-1.4,8.36-4.18,10.52-8.51,2.41-4.84,.57-8.9,.73-13.86,.12-3.75,3.74-7.79,5.87-10.65,2.64-3.55,5.66-6.85,8.84-9.92,3.41-3.3,7.04-6.21,10.93-8.92,4.72-3.28,8.68-6.98,7.71-13.27-1.52-9.78-14.36-13.44-22.33-16.27-7.45-2.64-15.34-4.77-20.99-10.6-8.52-8.8-21.95,4.64-13.44,13.44,5.9,6.09,13.26,9.64,21.1,12.57,3.66,1.37,7.38,2.54,11.04,3.92,1.51,.57,2.98,1.17,4.44,1.87,.87,.42,1.72,.87,2.56,1.34,1.62,1.04,1.66,.97,.1-.21l-1.3-4.79v1.05l1.29-4.79-.71,1.06,3.41-3.41c-13.46,9.87-27.48,20.9-34.76,36.48-1.88,4.02-3,8.19-2.62,12.65,.17,1.36,.36,2.72,.58,4.08,.11,1.49,.82,.94,2.14-1.65,.04,.05-4.55,1.01-4.63,1.03-8.77,1.57-18.09,2.94-27.01,2.62l4.79,1.3-1.01-.45,3.41,3.41c1.21,1.94,.18,1.37,.23-.16,.04-1.33-.14-2.71-.18-4.04-.07-2.41-.1-4.83-.32-7.23-.48-5.29-1.59-10.52-4.49-15.06-5.36-8.39-14.74-13.37-20.25-21.84-2.06-3.16-2.54-5-.87-8.57,1.88-4.02,5.02-7.23,8.68-9.67,4.28-2.86,8.77-5.45,12.22-9.34,2.72-3.06,4.66-7.44,8.27-9.6,6.83-4.07,15.34-.12,20.8,4.42,3.23,2.68,5.66,6.06,8.66,8.94,4.25,4.08,9.35,5.33,15.09,5.22,4.19-.08,7.81,.73,11.59,2.58,2.12,1.04,8.08,3.34,9.13,5.23,.72,1.3,.17,5.86,.03,7.18-.18,1.71-.65,3.15-1.45,4.65-2.03,3.8-5.9,7.44-9.32,9.97-.22,.16-1.25,.96,.11,.39-1.47,.63-3.73,.29-5.31,.67-2.62,.61-5.22,1.87-7.47,3.32-4.62,2.98-9.11,6.59-10.56,12.15-1.43,5.46-.75,11.95-.28,17.49,.58,6.92,1.72,13.77,3.43,20.5l9.16-12.03c-23-.19-45.99-.09-68.98,.3l9.16,12.03c2.99-9.55,2.58-19.47,1.52-29.29-.53-4.93-1.12-9.63-4.1-13.75-2.9-4.01-7-5.46-11.34-7.41-4.05-1.82-8.34-3.98-11.86-6.72-2.72-2.13-3.25-4.2-3.09-7.6,.36-7.56,3.29-16.59,11.57-18.05,5.06-.89,7.9-7.07,6.64-11.69-1.47-5.34-6.62-7.53-11.69-6.64h0Z"></path></g><g><path d="M144.42,47.46c-3.12-2.57-7.99-1.02-10.94,1.74-2.95,2.76-4.87,6.49-7.9,9.16-4.72,4.17-12.23,5.99-14.07,12.01-1.57,5.14,2.01,10.24,4.82,14.82,7.54,12.28,10.51,26.74,13.35,40.87,3.28-1.29,5.15-4.73,6.27-8.07s1.81-6.92,3.89-9.76c1.83-2.5,4.56-4.18,7.24-5.74,9.05-5.29,19.07-10.92,22.76-20.73,.91-2.43,1.38-5,1.84-7.56,.18-.99,.34-2.08-.16-2.95-.54-.94-1.69-1.33-2.74-1.62-6.28-1.72-12.79-2.62-19.3-2.68-2.16-.02-4.44,.03-6.35-.97s-3.24-3.51-2.17-5.39c-5.96,5.7-11.6,11.73-16.88,18.07,6.71,.98,13.48,1.5,20.26,1.55l-.51,4.28c4.85-5.28,10.47-9.85,16.64-13.5-1.08,6.41-7.76,10.54-14.21,11.34-2.55,.32-5.25,.29-7.5,1.52-2.64,1.45-4.1,4.33-5.41,7.04-1.08,2.24-2.19,4.58-2.15,7.07s1.59,5.14,4.04,5.55c2.24,.37,4.63-1.15,6.72-.26,1.63,.69,2.36,2.56,2.92,4.25l3.95,11.87c-1.7-13.17-16.59-22.16-16.94-35.43"></path><path class="e" d="M149.21,39.25c-4.86-3.13-10.72-3.2-15.94-.99s-8.27,6.4-11.92,10.75c-5.75,6.84-15.24,8.41-18.57,17.68-4.12,11.46,4.54,20.4,8.98,30.12s6.59,21.08,8.75,31.77c1.29,6.39,8.86,8.22,13.96,5.68,4.71-2.35,7.75-6.6,9.7-11.36,1.48-3.61,1.74-8.15,5.04-10.59,7.93-5.85,17.03-9.38,23.49-17.22,6-7.28,13.17-22.84,5.16-30.97-3.84-3.89-10.1-4.7-15.26-5.51-3.17-.5-6.38-.89-9.59-1.07-1.18-.07-2.37-.08-3.55-.11-3.88-.1-1.06-.37-.57,.76l1.3,4.79-.09,.1c2.89-9.31-9.25-15.62-15.88-9.24-5.95,5.73-11.57,11.75-16.88,18.07-4,4.76-3.58,14.79,4.19,15.88s15.12,1.79,22.78,1.89l-9.5-9.5-.51,4.28c-.99,8.33,10.96,12.32,16.22,6.72,4.42-4.71,9.2-8.66,14.72-12.02l-13.96-10.73c-1.1,4.65-6.89,4.41-10.67,5.02-7.12,1.16-11.98,5.6-15.16,11.93-3.11,6.19-5.47,13.19-1.97,19.79,1.72,3.24,4.54,5.91,8.05,7.08,1.42,.47,2.85,.73,4.35,.74,1.08,.06,2.15-.05,3.2-.32,2.13-.2,1.83-.38-.9-.53l-3.41-3.41c2.64,3.43,3.48,9.02,4.85,13.13,3.93,11.79,20.27,6.88,18.32-5.05-1.11-6.82-4.8-12.75-8.74-18.28-3.01-4.22-7.53-9.27-7.86-14.63-.76-12.14-19.77-12.23-19,0,.49,7.86,3.62,14.51,8.08,20.88,3.77,5.38,8.12,10.42,9.2,17.08l18.32-5.05c-2.22-6.67-3.62-15.6-9.21-20.33-3.14-2.66-7.95-3.79-11.97-2.61s3.13,4.75,3.98,3.66c.59-.75,.99-2.36,1.44-3.24,1.19-2.37,1.48-2.2,4.03-2.5,3.62-.41,6.93-1.23,10.24-2.78,6.45-3.01,11.48-8.54,13.13-15.54,1.85-7.83-6.63-15.18-13.96-10.73-6.83,4.15-13.1,9.16-18.56,14.99l16.22,6.72,.51-4.28c.61-5.15-4.85-9.44-9.5-9.5-5.92-.08-11.86-.39-17.73-1.21l4.19,15.88c5.31-6.33,10.93-12.34,16.88-18.07l-15.88-9.24c-2.85,9.19,4.33,17,13.15,18.11,3.85,.49,7.76,.23,11.62,.68,1.51,.17,3.01,.42,4.5,.72,1.16,.23,2.32,.49,3.47,.78,2.2,.73,2.29,.61,.27-.37l-2.44-4.19c-.33-1.39-.68,2.17-.76,2.49-.29,1.14-.61,2.23-1.11,3.28-.87,1.83-2.12,3.31-3.54,4.73-3.7,3.69-8.31,6.3-12.79,8.93-5.37,3.15-10.64,6.49-13.65,12.17-1.46,2.75-2.27,5.73-3.24,8.66-.58,1.74-.72,3.02-2.36,3.84l13.96,5.68c-1.71-8.49-3.43-17.03-6.21-25.24-2.7-7.97-6.73-14.8-10.67-22.14-1.31-2.44-1.71-2.42-.31-3.93,1.56-1.67,4.78-2.78,6.71-4.1,3.42-2.35,5.96-5.07,8.48-8.31,.98-1.25,2.04-2.99,3.36-3.89,1.06-.72,.57,.48-.57-.25,10.31,6.64,19.85-9.8,9.59-16.41h0Z"></path></g></g><path d="M68.61,179.68c-1.26-1.29-2.51-2.46-3.63-3.73-6.28-7.12-10.05-15.46-11.96-24.7-.33-1.59-.09-3.06,1.25-4.17,1.39-1.16,2.89-1.04,4.47-.46,8.13,2.97,16.27,5.93,24.4,8.89,19.15,6.97,38.3,13.95,57.45,20.89,.54,.2,1.28,.18,1.83-.01,15.58-5.64,31.14-11.32,46.71-16.99,11.71-4.27,23.43-8.54,35.14-12.81,1.58-.58,3.11-.65,4.46,.52,1.46,1.26,1.51,2.85,1.14,4.61-1.88,8.83-5.49,16.82-11.39,23.7-6.14,7.16-13.76,12.14-22.66,15.21-2.56,.88-5.1,1.85-8.08,2.93,2.27,.84,4.15,1.55,6.03,2.23,8.18,2.98,16.39,5.88,24.54,8.95,8.79,3.31,12.7,12.99,8.82,21.49-3.29,7.21-11.66,10.89-19.32,8.25-8.23-2.84-16.38-5.89-24.56-8.88-2.48-.91-4.39-2.63-6.16-4.54-1.48-1.6-2.97-3.19-4.48-4.76-1.88-1.96-4.31-2.52-6.78-1.43-3.84,1.69-7.64,1.68-11.54,.19-3.88-1.49-7.8-2.87-11.74-4.21-.63-.22-1.47-.23-2.1-.01-4.12,1.42-8.2,2.92-12.29,4.41-3.55,1.3-7.06,1.27-10.57-.2-3.12-1.3-5.27-.81-7.61,1.66-1.87,1.97-3.64,4.07-5.68,5.86-1.46,1.28-3.17,2.44-4.97,3.13-7.81,2.98-15.69,5.76-23.55,8.62-6.79,2.46-14.41,.19-18.42-5.48-4.22-5.98-3.94-13.89,.66-19.45,2.41-2.9,5.66-4.36,9.11-5.59,8.95-3.19,17.86-6.47,26.78-9.72,.31-.11,.6-.3,1.14-.57-7.72-2.92-15.55-5.08-22.08-10.33m5.8-5.01c3.03,1.47,5.83,3.11,8.82,4.21,15.53,5.76,31.12,11.37,46.68,17.04,2.91,1.06,5.82,2.12,8.83,3.22,1.84-5.06,3.63-9.96,5.45-14.97-28.69-10.44-57.19-20.82-86.08-31.33,.36,.97,.56,1.56,.79,2.13,2.27,5.58,5.53,10.49,9.85,14.69m82.79,17.2c-1.76,4.83-3.43,9.48-5.14,14.11-.3,.82,.13,1.04,.76,1.27,1.91,.68,3.83,1.34,5.71,2.09,1.91,.75,3.72,.64,5.6-.18,2.8-1.21,5.72-1.43,8.71-.71,3.34,.8,5.88,2.79,8.01,5.33,3.1,3.71,6.59,6.8,11.49,7.89,.77,.17,1.5,.51,2.24,.78,5.67,2.06,11.32,4.16,17.02,6.15,3.29,1.15,6.2,.26,8.47-2.3,2.25-2.53,2.63-5.47,1.26-8.58-1.1-2.5-3.23-3.73-5.69-4.62-14.97-5.42-29.93-10.87-44.89-16.31-4.45-1.62-8.91-3.23-13.56-4.92Zm-2.47-9.61l.03,.37c7.34,2.68,14.67,5.37,22.03,8.01,.53,.19,1.27,.07,1.84-.14,5.45-1.95,10.86-4,16.33-5.91,9.72-3.4,17.35-9.4,22.75-18.15,1.58-2.57,2.77-5.38,4.14-8.08l-.44-.36c-22.22,8.09-44.45,16.17-66.67,24.26Zm-23.71,25.51c-.36-.2-.55-.33-.77-.41-7.16-2.61-14.32-5.22-21.49-7.78-.53-.19-1.27-.11-1.83,.09-12.7,4.6-25.39,9.21-38.07,13.88-4.42,1.62-6.46,6.07-4.88,10.33,1.52,4.12,6.02,6.17,10.36,4.61,7.82-2.81,15.63-5.66,23.42-8.57,1.03-.38,2-1.09,2.8-1.86,1.95-1.9,3.72-3.98,5.67-5.88,4.09-4,9.06-5.39,14.32-3.25,3.89,1.58,6.96,.32,10.47-1.16Z"></path><path d="M189.01,115.53c0,1.59,0,3.02,0,4.45,0,10.45,0,20.9,0,31.36,0,3.34-1.46,4.75-4.81,4.75-28.43,0-56.87,0-85.3,0-3.46,0-4.88-1.37-4.88-4.82,0-11.24,0-22.49,0-33.73,0-.64,0-1.28,0-1.74-3.08-1.12-6.13-1.92-8.89-3.29-14.85-7.39-22.88-19.49-22.7-36.05,.18-16.67,8.5-28.68,23.6-35.82,5.61-2.65,11.6-3.59,17.78-3.23,1.1,.06,1.64-.22,2.13-1.24,9.54-19.95,32.76-28.23,52.69-18.71,8.18,3.91,14.24,10.1,18.22,18.25,.63,1.28,1.24,1.73,2.74,1.7,15.96-.29,28.34,6.39,36.06,20.29,7.82,14.07,6.9,28.31-2.07,41.71-5.5,8.22-13.42,13.3-23,15.75-.48,.12-.95,.24-1.57,.4Zm-7.83,16.87c0-.76,0-1.34,0-1.92,0-5.89,0-11.79,0-17.68,0-2.85,1.19-4.22,3.93-4.63,18.74-2.79,30.46-19.06,27.14-37.65-2.87-16.06-19.3-27.69-35.39-25.03-3.28,.54-4.57-.22-5.75-3.41-4.58-12.41-16.37-20.74-29.4-20.79-13.44-.05-25.28,8.3-29.93,21.09-.99,2.73-2.34,3.54-5.22,3.17-1.42-.18-2.85-.45-4.27-.44-11.32,.06-20.32,4.72-26.73,14.02-13.17,19.11-1.24,45.86,21.76,48.97,3.48,.47,4.51,1.64,4.52,5.15,0,5.75,0,11.49,0,17.24q0,1.9,1.96,1.9c.84,0,1.69-.03,2.52,.05,2.1,.21,3.47,1.94,3.37,4.14-.1,1.99-1.63,3.5-3.66,3.56-1.09,.03-2.19-.06-3.26,.04-.33,.03-.88,.51-.89,.8-.07,2.36-.04,4.72-.04,7.12h79.34c0-2.13-.09-4.11,.03-6.08,.08-1.45-.28-1.93-1.85-1.92-18.47,.06-36.95,.04-55.42,.04-.84,0-1.69,.03-2.53-.02-1.65-.09-2.89-1.06-3.41-2.63-.94-2.85,1.04-5.12,4.47-5.12,18.82,0,37.64,0,56.46,0,.68,0,1.36,0,2.25,0Z"></path></g></g></g></g></g></svg>